<svg t="1701935043407" class="icon" viewBox="0 0 1025 1024" version="1.1" xmlns="http://www.w3.org/2000/svg" p-id="5766" width="200" height="200"><path d="M895.531061 485.788536 535.640488 485.788536 535.640488 125.897963c0-13.5716-11.001648-24.573248-24.573248-24.573248s-24.573248 11.001648-24.573248 24.573248l0 359.890572L126.604444 485.788536c-13.5716 0-24.573248 11.001648-24.573248 24.573248s11.001648 24.573248 24.573248 24.573248l359.889548 0 0 359.890572c0 13.5716 11.001648 24.573248 24.573248 24.573248s24.573248-11.001648 24.573248-24.573248L535.640488 534.934007l359.890572 0c13.5716 0 24.573248-11.001648 24.573248-24.573248S909.102661 485.788536 895.531061 485.788536z" p-id="5767"></path></svg>