<svg t="1702288974390" class="icon" viewBox="0 0 1024 1024" version="1.1" xmlns="http://www.w3.org/2000/svg" p-id="18142" width="200" height="200"><path d="M704 704H320l-52.736 115.616c-7.936 16.672-11.904 29.792-11.904 39.36 0 18.368 4.736 31.04 32.64 38.144V928H64v-30.88c16.64-3.328 44.128-9.152 52.864-17.504 8.768-8.32 18.752-24.576 30.016-48.736l281.76-623.616c9.984-20.832 14.976-5.504 14.976-18.016 0-19.168-3.456-20.928-27.616-29.248V128h224v32c-24.576 7.072-31.008 7.36-31.008 24.864 0 12.096 3.968-6.144 11.872 9.28l293.024 625.472c13.76 27.936 25.824 46.976 36.224 57.184 10.432 10.24 24.384 16.992 41.888 20.32V928h-256v-30.88c27.52-4.576 47.488-17.504 47.488-38.72 0-8.768-4.16-21.696-12.48-38.784L704 704z m-32-96L525.344 279.008 384 608h288z" p-id="18143"></path></svg>