<svg t="1702288324571" class="icon" viewBox="0 0 1024 1024" version="1.1" xmlns="http://www.w3.org/2000/svg" p-id="14298" width="200" height="200"><path d="M258.5 735a170.43 170.43 0 0 1-147.65-85.22 25 25 0 1 1 43.28-25 120.52 120.52 0 0 0 208.75 0 25 25 0 0 1 43.28 25A170.43 170.43 0 0 1 258.5 735zM783.08 735a170.43 170.43 0 0 1-147.66-85.22 25 25 0 0 1 43.28-25 120.52 120.52 0 0 0 208.75 0 25 25 0 0 1 43.28 25A170.43 170.43 0 0 1 783.08 735zM518.67 786.38a25 25 0 0 1-25-25V269a25 25 0 0 1 50 0v492.38a25 25 0 0 1-25 25z" p-id="14299"></path><path d="M721.17 917h-405a25 25 0 0 1-25-25c0-41.92 25.33-80.4 71.33-108.34C404.61 758.08 460.07 744 518.67 744s114.06 14.08 156.17 39.66c46 27.94 71.33 66.42 71.33 108.34a25 25 0 0 1-25 25z m-373.73-50H689.9c-6.23-12.42-18.28-26.8-41-40.61C614.49 805.5 568.25 794 518.67 794s-95.82 11.5-130.21 32.39c-22.74 13.81-34.79 28.19-41.02 40.61zM782.24 412.44a260.45 260.45 0 0 1-81.1-13l-117-38.33a209 209 0 0 0-130.9 0l-117 38.33a259.61 259.61 0 0 1-189.43-10.73 25 25 0 1 1 20.83-45.46 209.68 209.68 0 0 0 153 8.67l117-38.33a258.6 258.6 0 0 1 162 0l117 38.33a209.68 209.68 0 0 0 153-8.67 25 25 0 1 1 20.83 45.46 259.83 259.83 0 0 1-108.23 23.73z" p-id="14300"></path><path d="M186.25 566.19a25 25 0 0 1-22.39-36.09l71.28-144a25 25 0 0 1 22.27-13.91h0.14a25 25 0 0 1 22.28 13.67l73.2 144a25 25 0 0 1-44.57 22.66L257.84 453l-49.17 99.32a25 25 0 0 1-22.42 13.87zM711.25 566.19a25 25 0 0 1-22.39-36.09l71.28-144a25 25 0 0 1 22.27-13.91h0.14a25 25 0 0 1 22.28 13.67l73.2 144a25 25 0 0 1-44.57 22.66L782.84 453l-49.17 99.32a25 25 0 0 1-22.42 13.87zM518.5 279a86.5 86.5 0 1 1 86.5-86.5 86.59 86.59 0 0 1-86.5 86.5z m0-123a36.5 36.5 0 1 0 36.5 36.5 36.54 36.54 0 0 0-36.5-36.5z" p-id="14301"></path></svg>