<svg t="1702287167714" class="icon" viewBox="0 0 1024 1024" version="1.1" xmlns="http://www.w3.org/2000/svg" p-id="8596" width="200" height="200"><path d="M224 739.669333l109.824-109.824A361.109333 361.109333 0 0 1 256 405.333333c0-200.298667 162.368-362.666667 362.666667-362.666666s362.666667 162.368 362.666666 362.666666-162.368 362.666667-362.666666 362.666667a361.109333 361.109333 0 0 1-224.512-77.824L284.330667 800l87.168 87.168a42.666667 42.666667 0 0 1-60.330667 60.330667L224 860.330667l-108.501333 108.501333a42.666667 42.666667 0 0 1-60.330667-60.330667L163.669333 800l-87.168-87.168a42.666667 42.666667 0 0 1 60.330667-60.330667l87.168 87.168zM618.666667 682.666667c153.173333 0 277.333333-124.16 277.333333-277.333334S771.84 128 618.666667 128s-277.333333 124.16-277.333334 277.333333 124.16 277.333333 277.333334 277.333334z"  p-id="8597"></path></svg>