<svg t="1702287143980" class="icon" viewBox="0 0 1024 1024" version="1.1" xmlns="http://www.w3.org/2000/svg" p-id="7623" width="200" height="200"><path d="M926.56 120.8c-0.224-1.344-0.32-2.72-0.8-4.032 0 0 0 0-0.032-0.032-0.8-2.176-2.112-3.968-3.36-5.888-0.032-0.064-0.064-0.096-0.096-0.16-0.832-1.28-1.216-2.688-2.24-3.872-0.224-0.256-0.544-0.352-0.768-0.608-1.6-1.728-3.584-2.88-5.568-4.224 0-0.032-0.032-0.032-0.064-0.064-1.504-1.024-2.848-2.272-4.48-3.008 0 0 0 0-0.032 0C905.088 97.12 900.672 96 896 96l-224 0c-17.696 0-32 14.336-32 32s14.304 32 32 32l139.328 0-152.704 134.656C599.808 250.496 527.04 224 448 224 253.92 224 96 381.92 96 576s157.92 352 352 352 352-157.92 352-352c0-91.904-35.68-175.424-93.6-238.176L864 198.88 864 320c0 17.664 14.304 32 32 32s32-14.336 32-32L928 128C928 125.44 927.136 123.2 926.56 120.8zM736 576c0 158.816-129.184 288-288 288-158.784 0-288-129.184-288-288 0-158.784 129.216-288 288-288C606.816 288 736 417.216 736 576z"  p-id="7624"></path></svg>