<svg t="1701928746691" class="icon" viewBox="0 0 1024 1024" version="1.1" xmlns="http://www.w3.org/2000/svg" p-id="3481" width="200" height="200"><path d="M295.2 74.9a33.43 33.43 0 0 1 51.6 5.3 191.12 191.12 0 0 1 30.6 110.1l214.4 170a361 361 0 0 1 338.5 61.8 34.43 34.43 0 0 1 2.8 51l-206 206.8 223.3 223.2a32.55 32.55 0 0 1-23 55.6 32.32 32.32 0 0 1-23-9.5L681.2 726l-206 206.8a34.06 34.06 0 0 1-24.3 10.1 34.48 34.48 0 0 1-26.7-12.7c-79-97.1-99.9-225.7-62.7-339.6l-170-214.4c-2 0.1-4 0.1-6 0.1A191.65 191.65 0 0 1 81 345.4a33.37 33.37 0 0 1-5.2-51.6z m10.2 113.2a126.87 126.87 0 0 0-1.1-20.5L168.5 303.2a120.41 120.41 0 0 0 17 1.2c1.2 0 2.5-0.1 3.7-0.1l36.2-1.1 22.5 28.3 170 214.4 24 30.3-12 36.8a288.76 288.76 0 0 0 26 237.2L625.4 680l12.7-12.8 42.9-43.1 169.3-170a288.25 288.25 0 0 0-146.2-39.6 288.69 288.69 0 0 0-90 14.3l-36.8 12-30.3-24-214.4-170-28.3-22.5z" p-id="3482" ></path></svg>