<svg t="1701765683632" class="icon" viewBox="0 0 1024 1024" version="1.1" xmlns="http://www.w3.org/2000/svg" p-id="5220" width="200" height="200"><path d="M656.548652 467.37464c-151.977343-33.011858-304.985156-12.455683-304.985156-12.455683 128.45665 11.553127 193.024202 36.154431 193.024202 36.154431L360.872512 631.521141c169.413458 35.894512 308.913629-6.703679 308.913629-6.703679C487.283574 608.880491 464.465892 594.922594 464.465892 594.922594L656.548652 467.37464 656.548652 467.37464zM947.061189 413.036058c-1.690502-5.179976-6.310729-8.859785-11.736299-9.315156l-295.426453-25.365714L524.475638 105.219413c-2.112104-5.0142-7.037277-8.283664-12.478196-8.283664-5.440919 0-10.361999 3.269463-12.473079 8.283664L384.10054 378.355187 88.673064 403.720901c-5.429663 0.455371-10.045797 4.13518-11.735275 9.315156-1.685385 5.179976-0.105401 10.865465 4.01136 14.439874L305.047066 621.630886 237.875201 910.469294c-1.235131 5.285377 0.819668 10.816347 5.223978 14.039761 4.422729 3.158946 10.30674 3.40761 14.983249 0.60989l253.91399-153.125493 253.908874 153.125493c2.177596 1.340531 4.592598 1.944282 7.008624 1.944282 2.809999 0 5.607718-0.848321 7.978718-2.549056 4.411473-3.225461 6.461155-8.754385 5.231141-14.041808L718.950887 621.630886l224.093824-194.154955C947.166589 423.901523 948.745551 418.222173 947.061189 413.036058L947.061189 413.036058zM865.615225 448.669626 681.932786 607.816253l55.053873 236.749052c1.014096 4.337795-0.671289 8.871041-4.282536 11.508102-1.940189 1.39579-4.234441 2.093684-6.538927 2.093684-1.983167 0-3.962242-0.49835-5.745864-1.595334L512.301364 731.058135 304.177256 856.571756c-3.834328 2.295276-8.661264 2.089591-12.283768-0.49835-3.613294-2.642177-5.29254-7.176446-4.28356-11.508102l55.061037-236.749052-183.683463-159.146627c-3.372817-2.926656-4.669346-7.585769-3.290953-11.830443 1.385557-4.249791 5.170766-7.264451 9.619078-7.635911l242.151086-20.794605 94.606705-223.876883c1.733481-4.110621 5.767354-6.792707 10.228969-6.792707 4.459568 0 8.493441 2.682086 10.228969 6.792707l94.605681 223.876883 242.151086 20.794605c4.450359 0.37146 8.232498 3.38612 9.619078 7.635911C870.286618 441.088974 868.989065 445.74297 865.615225 448.669626L865.615225 448.669626zM865.615225 448.669626" fill="#272636" p-id="5221"></path></svg>