<svg t="1701769422882" class="icon" viewBox="0 0 1024 1024" version="1.1" xmlns="http://www.w3.org/2000/svg" p-id="14966" width="200" height="200"><path d="M469.333333 512H299.008c1.706667 53.376 9.6 103.509333 22.314667 148.053333 44.501333 12.672 94.634667 20.608 148.010666 22.272V512z m190.72 148.053333c12.672-44.544 20.608-94.677333 22.272-148.053333H512v170.325333a612.864 612.864 0 0 0 148.053333-22.314666zM321.28 321.28A612.864 612.864 0 0 0 299.050667 469.333333H469.333333V299.008c-53.376 1.706667-103.509333 9.6-148.053333 22.314667zM512 469.333333h170.325333a612.864 612.864 0 0 0-22.314666-148.053333A612.864 612.864 0 0 0 512 299.050667V469.333333z m-174.165333 239.018667c31.445333 77.909333 78.933333 131.2 131.498666 142.677333v-125.994666a670.976 670.976 0 0 1-131.498666-16.64zM512 851.029333c52.565333-11.52 100.053333-64.768 131.498667-142.677333-40.96 9.557333-85.290667 15.317333-131.498667 16.64v126.037333z m131.498667-578.048c-31.445333-77.909333-78.933333-131.2-131.498667-142.677333v125.994667c46.208 1.365333 90.496 7.125333 131.498667 16.64zM469.333333 130.304c-52.565333 11.52-100.053333 64.768-131.498666 142.677333 40.96-9.557333 85.290667-15.317333 131.498666-16.64V130.261333zM725.034667 512a670.976 670.976 0 0 1-16.64 131.498667c77.866667-31.445333 131.157333-78.933333 142.634666-131.498667h-125.994666z m-16.64-174.165333c9.514667 40.96 15.274667 85.290667 16.64 131.498666h125.994666c-11.52-52.565333-64.768-100.053333-142.677333-131.498666zM272.938667 643.498667A670.976 670.976 0 0 1 256.341333 512H130.261333c11.52 52.565333 64.768 100.053333 142.677334 131.498667zM256.341333 469.333333c1.322667-46.208 7.082667-90.496 16.64-131.498666-77.909333 31.445333-131.2 78.933333-142.677333 131.498666h125.994667z m572.928 151.466667c-34.56 30.293333-80.896 55.381333-135.082666 73.386667-18.005333 54.186667-43.093333 100.522667-73.386667 135.082666a363.733333 363.733333 0 0 0 208.469333-208.426666zM287.146667 694.186667c-54.186667-18.005333-100.522667-43.093333-135.082667-73.386667a363.733333 363.733333 0 0 0 208.426667 208.469333c-30.250667-34.56-55.338667-80.896-73.344-135.082666zM152.064 360.533333c34.56-30.293333 80.896-55.381333 135.082667-73.386666 18.005333-54.186667 43.093333-100.522667 73.386666-135.082667a363.733333 363.733333 0 0 0-208.469333 208.426667zM694.186667 287.146667c54.186667 18.005333 100.522667 43.093333 135.082666 73.386666a363.733333 363.733333 0 0 0-208.426666-208.469333c30.250667 34.56 55.338667 80.896 73.344 135.082667zM896 490.666667a405.333333 405.333333 0 0 1-405.333333 405.333333A405.333333 405.333333 0 0 1 85.333333 490.666667 405.333333 405.333333 0 0 1 490.666667 85.333333a405.333333 405.333333 0 0 1 405.333333 405.333334z"  p-id="14967"></path></svg>