<svg t="1701845996171" class="icon" viewBox="0 0 1024 1024" version="1.1" xmlns="http://www.w3.org/2000/svg" p-id="2582" width="200" height="200"><path d="M853.333333 335.416889l127.886223-74.638222a28.444444 28.444444 0 0 1 42.780444 24.576v457.216a28.444444 28.444444 0 0 1-42.951111 24.462222L853.333333 691.228444V853.333333a56.888889 56.888889 0 0 1-56.888889 56.888889H56.888889a56.888889 56.888889 0 0 1-56.888889-56.888889V170.666667a56.888889 56.888889 0 0 1 56.888889-56.888889h739.555555a56.888889 56.888889 0 0 1 56.888889 56.888889v164.750222z m0 65.877333v223.772445l113.777778 67.527111V334.876444l-113.777778 66.417778z m-56.888889-32.682666V170.666667H56.888889v682.666666h739.555555V368.611556z" fill="#4D4A49" p-id="2583"></path><path d="M213.333333 327.111111m-71.111111 0a71.111111 71.111111 0 1 0 142.222222 0 71.111111 71.111111 0 1 0-142.222222 0Z" p-id="2584"></path></svg>