<svg t="1701845738024" class="icon" viewBox="0 0 1024 1024" version="1.1" xmlns="http://www.w3.org/2000/svg" p-id="2428" width="200" height="200"><path d="M776.6 960.1c-1 0-2.1 0-3.1-0.2h-0.4c-101.3-0.3-208.1-26.5-308.9-75.8-92.8-45.3-174.6-107.2-230.4-174.2-53.8-64.5-96-137.4-125.4-216.7C78.8 413.4 63.9 331 63.9 248.3c0-1.5 0.2-3.2 0.6-4.6l0.1-0.2v-0.2c1.2-48.2 20.9-93.4 55.4-127 34.4-33.7 80-52.3 128.2-52.4 83.3 0.2 156.1 56.7 177.2 137.3 12.5 47.4 5.7 96.9-19.1 139.2-24.8 42.4-64.7 72.6-112.2 84.9l-2.2 0.6 0.8 2.1C345.3 568.5 456 679 596.4 731.1l2.1 0.8 0.6-2.1c21.2-80.8 94.3-137.3 177.8-137.3 48.9 0 95 19.1 129.7 53.9 34.7 34.8 53.8 80.9 53.7 130-0.2 101.3-82.5 183.7-183.7 183.7zM248 129.5c-31 0.1-60.2 12.1-82.3 33.6-22.2 21.8-34.9 50.8-35.6 81.8-0.1 2.5-0.3 4.9-0.6 7.4v0.2c0.5 73.5 14.1 146.8 40.4 217.8C196.5 542.5 235 609 284.1 667.9c50 60 124.1 115.8 208.8 157.2 91.9 44.9 188.9 68.8 280.3 69.2 1.6 0 3.1 0.1 4.7 0.2h0.5c64-1 116.1-54 116.2-118.1 0-31.6-12.2-61.4-34.4-83.7-22.2-22.3-51.8-34.6-83.2-34.6-53.7 0-100.7 36.3-114.3 88.3-4.9 18.5-17.3 34.1-34.2 42.9-9.5 5-20.3 7.6-31.2 7.6-8.2 0-16.1-1.4-23.6-4.2C415.4 733.8 290.6 609.3 231.2 451c-6.8-17.9-5.6-37.9 3.3-54.8 8.8-16.9 24.5-29.4 43-34.2 30.5-8 56.1-27.3 72-54.6 15.9-27.1 20.2-58.8 12.3-89.2v-0.2l-0.1-0.2c-13.4-51.8-60.2-88.1-113.7-88.3z" p-id="2429"></path></svg>