<svg t="1702287737720" class="icon" viewBox="0 0 1024 1024" version="1.1" xmlns="http://www.w3.org/2000/svg" p-id="12890" width="200" height="200"><path d="M675.357696 823.917c0 0 175.492096-254.461-81.534976-392.942 0 0-71.510016-18.784-74.446848 0-2.934784 18.777 124.082176 195.211 63.808512 269.843 0-0.009-83.308544 1.925-122.304512-79.437 0 0-33.683456-50.199-81.544192-12.116-47.854592 38.082-84.64384 77.9-75.994112 98.67 8.640512 20.772 51.17952 93.478 38.777856 98.668-12.412928 5.193-104.584192-1.728-127.62624 12.121-23.041024 13.849-40.769536 50.194 123.194368 64.052 163.968 13.849 117.876736-50.203 133.83168-81.363 15.949824-31.156 40.769536-22.498 46.082048 3.463 5.325824 25.971-5.124096 78.304 65.68448 79.829 70.806528 1.527 150.576128 24.438 177.158144 0C787.034112 860.266 703.724544 823.917 675.357696 823.917zM911.117312 576.375c-56.721408-154.064-131.1744-135.024-99.265536-193.88-0.003072 0.005 95.717376-110.78 63.811584-117.707 0 0-165.15072 72.701-110.055424 174.834 55.103488 102.134 187.36128 144.809 72.834048 260.583-19.6352 19.842-95.722496 23.307-95.722496 23.307s-33.678336 34.626 10.638336 38.081C797.6704 765.058 967.842816 730.438 911.117312 576.375zM329.705472 238.829c38.996992 20.769 72.680448-1.737 83.31776-24.238 10.62912-22.5 19.497984-55.391 0-72.704-51.429376-45.644-92.181504 0-92.181504 0C301.34784 169.583 290.710528 218.056 329.705472 238.829zM296.245248 479.434c0 0-46.301184 90.014-65.80736 115.982-19.493888 25.961-37.2224 95.203-8.860672 103.861 28.366848 8.657 77.997056-45.004 122.308608-95.205 44.3136-50.202 88.630272-50.202 122.304512-6.929 33.680384 43.272 124.079104 150.6 108.128256 31.161-15.961088-119.438-63.81568-174.833-79.770624-200.803 0 0 16.595968-74.983 3.547136-105.243-0.653312-1.516-1.352704-2.999-2.08896-4.454 8.51456 2.027 18.034688 3.437 28.681216 4.107 109.899776 6.924 111.676416-91.75 99.264512-119.438-12.402688-27.697-38.995968-50.203-99.264512-55.395 0 0-58.494976-8.614-79.7696 37.239-10.61376 22.878-18.134016 55.456-9.357312 83.22-36.478976-15.729-95.251456-30.585-165.235712-9.673-86.397952 25.815-102.434816 61.241-104.761344 80.968-7.128064 0.353-12.867584 1.031-16.663552 2.121-30.1312 8.657-49.630208 25.97-31.905792 45.006 17.724416 19.038 42.539008 20.765 62.036992 19.038C179.035136 404.998 222.012416 469.048 296.245248 479.434zM331.480064 315.335c9.863168 5.156 17.8944 11.694 25.005056 17.641-6.637568 5.579-14.861312 11.162-25.005056 16.635 0 0-15.901696-1.806-38.437888-3.958C302.133248 326.95 315.956224 307.221 331.480064 315.335z" p-id="12891"></path></svg>